<svg xmlns="http://www.w3.org/2000/svg" version="1.1" xmlns:xlink="http://www.w3.org/1999/xlink" xmlns:svgjs="http://svgjs.dev/svgjs" width="1000" height="305" viewBox="0 0 1000 305"><g transform="matrix(1,0,0,1,-0.6056348047761162,-0.5484750087238979)"><svg viewBox="0 0 396 121" data-background-color="#ffffff" preserveAspectRatio="xMidYMid meet" height="305" width="1000" xmlns="http://www.w3.org/2000/svg" xmlns:xlink="http://www.w3.org/1999/xlink"><g id="tight-bounds" transform="matrix(1,0,0,1,0.24008861730862918,0.21774515057265376)"><svg viewBox="0 0 395.52 120.56466312465494" height="120.56466312465494" width="395.52"><g><svg viewBox="0 0 395.52 120.56466312465494" height="120.56466312465494" width="395.52"><g><svg viewBox="0 0 395.52 120.56466312465494" height="120.56466312465494" width="395.52"><g id="textblocktransform"><svg viewBox="0 0 395.52 120.56466312465494" height="120.56466312465494" width="395.52" id="textblock"><g><svg viewBox="0 0 395.52 120.56466312465494" height="120.56466312465494" width="395.52"><path d="M394.594 25.859C392.735 13.344 387.435 9.865 387.435 9.865 371.165-3.025 350.86-0.247 332.619 1.606 300.414 1.681 268.339 4.434 236.208 5.911 168.767 6.136 100.749 2.432 33.643 11.567 27.339 14.37-6.54 12.118 1.121 27.461 3.129 33.843 10.456 40.926 10.232 46.783 11.236 47.809 12.631 45.457 13.226 46.933 15.309 50.913 18.711 49.036 21.501 51.389 17.614 57.671 20.403 62.902 23.062 68.383 18.377 69.81 12.371 69.134 9.675 73.865 9.396 77.294 7.89 76.643 6.235 76.493 5.026 76.393 2.59 76.768 2.999 77.844 4.394 81.524-1.594 83.651 2.162 87.255-0.422 91.16 3.948 94.539 3.353 98.769 3.278 99.62 3.687 100.346 4.338 100.546 7.22 101.622 3.018 103.724 3.464 106.002 33.029 121.57 65.104 110.808 95.394 117.966 103.259 112.96 97.346 119.743 100.489 118.692 102.943 117.465 104.728 122.546 107.499 119.668 107.927 118.842 107.276 116.89 108.8 117.265 109.6 117.465 110.307 117.415 110.418 116.264 110.586 114.537 109.117 115.613 108.726 114.712 112.947 110.157 111.906 120.995 115.866 120.544 115.68 119.218 114.528 117.315 116.889 117.566 119.232 115.663 119.306 114.087 121.389 118.367 121.463 119.293 121.835 119.943 122.43 120.394 128.938 115.738 135.409 122.046 142.233 119.943 146.417 117.641 150.433 121.195 154.672 120.319 156.16 119.618 157.666 118.367 159.098 120.469 176.632 120.919 195.319 119.042 211.943 120.544 256.364 117.741 303.835 121.695 350.674 117.991 361.719 116.564 373.192 114.537 383.958 112.91 383.958 112.91 392.679 108.455 392.679 88.432S394.538 70.911 394.817 54.968C395.096 39.024 396.398 38.373 394.538 25.859Z" opacity="1" fill="#6936f5" data-fill-palette-color="tertiary"></path><g transform="matrix(1,0,0,1,55.76832,26.230666666666668)"><svg width="283.98335999999995" viewBox="3.5 -35.5 150.94000244140625 36.20000076293945" height="68.10332979132161" data-palette-color="#ffffff"><path d="M29.95-4.45Q30.35-3.6 30.35-2.75L30.35-2.75Q30.35-1.15 29.13-0.25 27.9 0.65 26.6 0.65L26.6 0.65Q24.8 0.65 23.65-0.13 22.5-0.9 21.75-2.25 21-3.6 20-6.1L20-6.1 18.25-10.6Q17.6-12.25 17.05-13.18 16.5-14.1 15.45-14.75 14.4-15.4 12.65-15.4L12.65-15.4 10.4-15.45 10.4-6.45Q10.4-2.75 11.3-0.65L11.3-0.65Q10.75-0.15 9.85 0.28 8.95 0.7 7.85 0.7L7.85 0.7Q6.35 0.7 5.38-0.15 4.4-1 4.35-2.45L4.35-2.45 4.35-28Q4.35-31.85 3.5-34.1L3.5-34.1Q6.4-35.5 12.3-35.5L12.3-35.5Q19.6-35.5 23.23-33.33 26.85-31.15 26.85-26.3L26.85-26.3Q26.85-22.7 24.73-20.18 22.6-17.65 18.95-16.7L18.95-16.7Q20.7-16.2 21.78-15.13 22.85-14.05 23.8-12.3L23.8-12.3 26-7.2Q26.7-5.5 27.35-4.75 28-4 28.7-3.95L28.7-3.95Q29.45-3.95 29.95-4.45L29.95-4.45ZM10.4-17.65Q12-17.55 12.95-17.6L12.95-17.6Q16.4-17.65 18.32-19.95 20.25-22.25 20.25-25.9L20.25-25.9Q20.25-29.4 18.45-31.38 16.65-33.35 12.75-33.35L12.75-33.35Q11.6-33.35 10.4-33.25L10.4-33.25 10.4-17.65ZM47.55 0.7Q40.65 0.7 37.1-3.85 33.55-8.4 33.55-17.4L33.55-17.4Q33.55-26.4 37.1-30.95 40.65-35.5 47.55-35.5L47.55-35.5Q54.4-35.5 57.95-30.95 61.5-26.4 61.5-17.4L61.5-17.4Q61.5-8.4 57.95-3.85 54.4 0.7 47.55 0.7L47.55 0.7ZM47.55-1.5Q51.35-1.5 53.12-5.33 54.9-9.15 54.9-17.4L54.9-17.4Q54.9-25.65 53.12-29.48 51.35-33.3 47.55-33.3L47.55-33.3Q43.75-33.3 41.95-29.48 40.15-25.65 40.15-17.4L40.15-17.4Q40.15-9.15 41.95-5.33 43.75-1.5 47.55-1.5L47.55-1.5ZM70.05 0.7Q68.8 0.7 67.55-0.1L67.55-0.1Q68.45-2.5 68.45-6.8L68.45-6.8 68.39-27.95Q68.39-32.05 68.05-34.65L68.05-34.65Q68.34-35 69.14-35.2 69.95-35.4 70.8-35.4L70.8-35.4Q71.95-35.4 72.3-35.05L72.3-35.05Q74.5-31.9 78.84-26.1L78.84-26.1Q83.8-19.5 86.95-15 90.09-10.5 91.4-7.85L91.4-7.85 89.9-30.8Q89.84-31.05 89.84-31.55L89.84-31.55Q89.84-33.15 90.55-34.15 91.25-35.15 92.55-35.3L92.55-35.3Q94-35.4 95.05-34.75L95.05-34.75Q94.55-33 94.55-29.15L94.55-29.15 94.5-6.65Q94.5-2.3 94.8-0.1L94.8-0.1Q94.5 0.25 93.75 0.45 93 0.65 92.25 0.65L92.25 0.65Q91.3 0.65 90.75 0.35L90.75 0.35Q77.9-14.75 71.8-26L71.8-26 73.05-2.8Q73.14-1.3 72.2-0.3 71.25 0.7 70.05 0.7L70.05 0.7ZM125.79-29L116.49-12.95 116.49-6.8Q116.49-3 117.39-0.65L117.39-0.65Q116.89-0.15 115.97 0.28 115.04 0.7 113.94 0.7L113.94 0.7Q112.44 0.7 111.47-0.15 110.49-1 110.49-2.45L110.49-2.45 110.49-13Q110.09-13.5 109.54-14.6L109.54-14.6 101.54-30.35Q100.49-32.2 99.24-33.45L99.24-33.45Q99.89-34.15 100.99-34.75 102.09-35.35 103.49-35.35L103.49-35.35Q105.14-35.35 106.02-34.52 106.89-33.7 107.69-32L107.69-32 114.64-16.9 121.09-31Q121.59-32.2 121.59-33.1L121.59-33.1Q121.59-34.05 120.99-34.75L120.99-34.75Q122.54-35.35 124.39-35.35L124.39-35.35Q125.74-35.35 126.44-34.6 127.14-33.85 127.19-32.7L127.19-32.7Q127.19-31.35 125.79-29L125.79-29ZM141.79 0.7Q135.99 0.7 133.04-1.28 130.09-3.25 130.09-6.45L130.09-6.45Q130.09-8.05 130.97-9 131.84-9.95 133.84-9.95L133.84-9.95Q134.14-9.95 135.14-9.85L135.14-9.85Q134.99-9.35 134.99-8.65L134.99-8.65Q134.99-8.25 135.09-7.35L135.09-7.35Q135.44-4.9 137.34-3.23 139.24-1.55 142.59-1.55L142.59-1.55Q145.24-1.55 146.92-2.93 148.59-4.3 148.59-6.95L148.59-6.95Q148.59-9.45 146.97-11.1 145.34-12.75 141.39-14.95L141.39-14.95Q137.79-17 135.72-18.55 133.64-20.1 132.47-22.08 131.29-24.05 131.29-26.8L131.29-26.8Q131.29-31.2 134.54-33.35 137.79-35.5 142.84-35.5L142.84-35.5Q147.59-35.5 150.47-33.98 153.34-32.45 153.34-29.55L153.34-29.55Q153.34-26.8 150.24-26.65L150.24-26.65 149.79-26.65Q149.34-26.65 148.44-26.75L148.44-26.75Q148.49-27 148.49-27.45L148.49-27.45Q148.49-28.55 148.14-29.45L148.14-29.45Q147.79-31.2 146.24-32.25 144.69-33.3 142.14-33.3L142.14-33.3Q140.04-33.3 138.47-32.25 136.89-31.2 136.89-28.85L136.89-28.85Q136.89-27.2 137.64-25.93 138.39-24.65 140.04-23.4 141.69-22.15 144.69-20.5L144.69-20.5Q147.74-18.85 149.77-17.38 151.79-15.9 153.12-13.8 154.44-11.7 154.44-8.95L154.44-8.95Q154.44-6.3 153.07-4.1 151.69-1.9 148.84-0.6 145.99 0.7 141.79 0.7L141.79 0.7Z" opacity="1" transform="matrix(1,0,0,1,0,0)" fill="#ffffff" class="wordmark-text-0" data-fill-palette-color="quaternary" id="text-0"></path></svg></g></svg></g></svg></g></svg></g><g></g></svg></g><defs></defs></svg><rect width="395.52" height="120.56466312465494" fill="none" stroke="none" visibility="hidden"></rect></g></svg></g></svg>